# xmcd
#
# Track frame offsets: 
#        150
#        17478
#        33437
#        48142
#        67676
#        82576
#        103945
#        117712
#        143777
#        157096
#        173533
#        182315
#        201966
#        214373
#        225768
#        245300
#        260868
#        292314
#
# Disc length: 4065 seconds
#
# Revision: 0
# Processed by: cddbd v1.5.2PL0 Copyright (c) Steve Scherf et al.
# Submitted via: ExactAudioCopy v0.99pb4
#
DISCID=f40fdf12
DTITLE=Various Artist - 1000 Klassiekers Vol. 7 - CD 2
DYEAR=2015
DGENRE=Easy Listening
TTITLE0=Abba - Dancing Queen
TTITLE1=Samantha - Eviva Espana
TTITLE2=Belle Perez - Hello World
TTITLE3=Umberto Tozzi - Gloria
TTITLE4=Madness - Our House
TTITLE5=Guus Meeuwis and Vagant - Het Is Een Nacht... (Levensecht)
TTITLE6=Middle Of The Road - Soley Soley
TTITLE7=Pacific Gas and Electric - Are You Ready
TTITLE8=Ben E. King - Stand By Me
TTITLE9=Gilbert Bécaud - L'Important C'Est La Rose
TTITLE10=Tom Jones - It's Not Unusual
TTITLE11=Yevgueni - Als Ze Lacht
TTITLE12=Nicole and Hugo - Goeiemorgen, Morgen
TTITLE13=Charles Trenet - Boum!
TTITLE14=Jean-Jacques Goldman and Michael Jones - Je Te Donne
TTITLE15=Kate Bush - Babooshka
TTITLE16=Billy Joel - Goodnight Saigon
TTITLE17=Toots Thielemans - Bluesette
EXTD=
EXTT0=
EXTT1=
EXTT2=
EXTT3=
EXTT4=
EXTT5=
EXTT6=
EXTT7=
EXTT8=
EXTT9=
EXTT10=
EXTT11=
EXTT12=
EXTT13=
EXTT14=
EXTT15=
EXTT16=
EXTT17=
PLAYORDER=
